<?xml version="1.0" encoding="UTF-8" standalone="no"?>
<svg height="400.09668" viewBox="0 0 742.27061 400.09669" width="742.27063" xmlns="http://www.w3.org/2000/svg">
<g transform="matrix(1.78452,0,0,1.78452,3.47886,-3.9563992e-4)">
<path d="m118.353,167.296c-12.21,0-24.651-.523-36.753,1.436-12.008,1.943-21.825,9.536-33.669,10.942-9.242,1.098-42.533-2.941-47.356,7.814-4.518,10.075 18.894,5.745 25.461,5.745 9.516,0 18.066,1.975 26.415,2.324 16.442.689 34.582-3.083 50.694.633 11.864,2.736 5.182,5.591 12.504,10.815 4.462,3.184 12.623,1.469 19.264,1.901 12.82.834 23.48,10.252 37.218,12.039 22.745,2.961 45.729.295 68.408-2.024 18.391-1.882 34.854-1.338 53.215-4.396 8.638-1.438 9.646-4.738 16.392-7.52 8.168-3.368 17.978-2.107 27.713-2.619 21.666-1.139 40.925-10.578 61.846-15.631 22.338-5.396 10.514-6.575-5.195-7.857-22.003-1.796-43.591-3.738-65.733-3.591-46.546.311-94.664-2.455-140.929,3.168-18.304,2.226-36.039-4.618-52.172-7.52-4.469-.804-8.618.723-11.576-1.183-2.635.041-6.06-1.393-5.747-4.476" fill="none" stroke="#000" stroke-width="3.9"/>
<path d="m110.664,48.419c.583,32.216 2.907,63.301 10.477,93.698 2.428,9.748-1.489,29.281 3.295,36.838 3.925,6.199 19.845,6.662 28.262,8.026 20.038,3.249 43.068,2.336 62.227,7.604 20.499,5.638 32.901,17.485 56.493,12.89 18.908-3.682 37.923-9.465 55.962-16.227 7.74-2.902 26.696-4.375 31.684-10.772 5.448-6.988 4.159-26.252 3.975-35.492-.541-26.992-1.018-53.944-1.018-80.94v-36.908c0-9.878-2.367-6.871-10.561-9.895-16.529-6.1-34.322-8.949-51.689-11.609-31.835-4.876-60.289-9.486-90.87-.072-27.125,8.35-58.075,17.989-82.099,32.297-3.598,2.143-11.917,5.859-14.11,8.618-.763-1.66-1.34-.017-2.028,1.944" fill-rule="evenodd"/>
<path d="m110.664,48.419c.583,32.216 2.907,63.301 10.477,93.698 2.428,9.748-1.489,29.281 3.295,36.838 3.925,6.199 19.845,6.662 28.262,8.026 20.038,3.249 43.068,2.336 62.227,7.604 20.499,5.638 32.901,17.485 56.493,12.89 18.908-3.682 37.923-9.465 55.962-16.227 7.74-2.902 26.696-4.375 31.684-10.772 5.448-6.988 4.159-26.252 3.975-35.492-.541-26.992-1.018-53.944-1.018-80.94v-36.908c0-9.878-2.367-6.871-10.561-9.895-16.529-6.1-34.322-8.949-51.689-11.609-31.835-4.876-60.289-9.486-90.87-.072-27.125,8.35-58.075,17.989-82.099,32.297-3.598,2.143-11.917,5.859-14.11,8.618-.704-1.668-1.277-.138-2.028,2.028" fill="none" stroke="#409fff" stroke-linecap="square" stroke-miterlimit="10" stroke-width=".2"/>
<path d="m296.542,69.879c16.131-2.559 33.421-3.866 47.822-11.786 13.578-7.468 4.615,11.7 3.379,17.954-2.852,14.429.602,27.462 2.703,41.695 2.061,13.948-3.69,26.866-1.098,40.81 3.153,16.957.234,18.213-16.307,22.643-12.153,3.254-26.102,18.124-38.104,10.772-11.214-6.869-6.589-17.26-4.056-27.079 4.311-16.707-1.934-26.017-4.816-41.526-3.148-16.934.826-39.269 10.477-53.483" fill="#fff" fill-rule="evenodd"/>
<path d="m218.642,45.884c-14.158,3.839-31.199-1.143-45.962.676-10.687,1.316-19.292,2.75-30.501,1.69-9.637-.912-25.5-5.08-32.613,2.281 10.789,1.482 18.51,5.155 30.036,6.042 14.925,1.147 28.615-1.017 43.217-1.395 8.771-.227 34.886-1.225 43.259,3.548 6.498,3.705 7.126,25.404 9.97,35.063 5.886,19.994 1.455,44.318 1.773,66.325 2.589-4.971 4.501-10.376 7.098-15.208 6.977,11.54 9.038,27.167 16.645,37.598-.16-.057-.214-.13.507,2.027 .181-.513-.506-1.96-.422-1.773 15.509,18.076 9.507-9.463 5.787-18.926-4.622-11.759-12.343-16.846-8.406-28.051 8.03,0 13.785.432 20.445-2.535 4.421-1.969 7.962-6.803 13.857-7.604-6.228-6.693-41.734-5.768-50.44-4.056 1.794,1.185 4.291,3.065 5.999,4.056-.35-.792-1.815-1.181-2.197-2.027 .268-.104 2.143.385 2.197,0-3.276-3.742-11.065-15.039-7.014-19.264 2.551-2.66 22.661.409 26.614.338 8.634-.155 17.715-.272 25.854-3.464-5.247-2.512-14.65-3.696-20.404-8.237-9.853-7.776-4.502-5.52-7.815-16.096-.623-1.99-6.806-3.331-6.929-6.675-.342-9.275 6-6.475 13.772-7.435 13.948-1.722 27.495-5.989 41.481-7.442 12.619-1.311 27.684-6.85 39.333-13.512 13.539-7.743-14.129-22.134-18.038-24.84 12.31,7.588-7.172,17.469-13.435,20.404-13.676,6.411-25.393,7.939-38.865,11.195-12.8,3.093-28.321,6.007-39.964,1.69-3.486-1.293-28.838-9.491-24.839-4.393" fill="#fff" fill-rule="evenodd"/>
<path d="m218.642,45.884c-14.158,3.839-31.199-1.143-45.962.676-10.687,1.316-19.292,2.75-30.501,1.69-9.637-.912-25.5-5.08-32.613,2.281 10.789,1.482 18.51,5.155 30.036,6.042 14.925,1.147 28.615-1.017 43.217-1.395 8.771-.227 34.886-1.225 43.259,3.548 6.498,3.705 7.126,25.404 9.97,35.063 5.886,19.994 1.455,44.318 1.773,66.325 2.589-4.971 4.501-10.376 7.098-15.208 6.977,11.54 9.038,27.167 16.645,37.598-.16-.057-.214-.13.507,2.027 .181-.513-.506-1.96-.422-1.773 15.509,18.076 9.507-9.463 5.787-18.926-4.622-11.759-12.343-16.846-8.406-28.051 8.03,0 13.785.432 20.445-2.535 4.421-1.969 7.962-6.803 13.857-7.604-6.228-6.693-41.734-5.768-50.44-4.056 1.794,1.185 4.291,3.065 5.999,4.056-.35-.792-1.815-1.181-2.197-2.027 .268-.104 2.143.385 2.197,0-3.276-3.742-11.065-15.039-7.014-19.264 2.551-2.66 22.661.409 26.614.338 8.634-.155 17.715-.272 25.854-3.464-5.247-2.512-14.65-3.696-20.404-8.237-9.853-7.776-4.502-5.52-7.815-16.096-.623-1.99-6.806-3.331-6.929-6.675-.342-9.275 6-6.475 13.772-7.435 13.948-1.722 27.495-5.989 41.481-7.442 12.619-1.311 27.684-6.85 39.333-13.512 13.539-7.743-14.129-22.134-18.038-24.84 12.31,7.588-7.172,17.469-13.435,20.404-13.676,6.411-25.393,7.939-38.865,11.195-12.8,3.093-28.321,6.007-39.964,1.69-3.378-1.252-28.776-9.841-24.84-4.309" fill="none" stroke="#fff" stroke-linecap="square" stroke-miterlimit="10" stroke-width=".2"/>
<path d="m165.16,39.293c-.285-5.374 1.645-9.664 5.577-12.842 7.553-6.104 5.638-.444 8.617,6.759l-.76-.761c1.659,6.302-8.997,8.987-13.434,6.844" fill="#fff" fill-rule="evenodd"/>
<path d="m128.407,66.5c17.428,6.187 34.852,5.547 52.891,3.126 13.932-1.87 25.84-2.015 33.626,11.829 7.097,12.615 7.747,23.132 7.013,37.344-.823,15.936 2.32,43.344-4.73,57.623-8.321,16.851-29.062,8.651-42.33,3.886-6.795-2.44-13.897-6.037-21.207-6.59-4.639-.351-9.095,1.992-13.73.888-14.958-3.566-4.526-38.603-4.352-48.033 .302-16.357-14.831-41.382-9.547-55.763 .46-1.252 1.509-3.279 2.366-4.31" fill="#fff" fill-rule="evenodd"/>
<path d="m239.088,9.046c-14.106,1.139-26.381,4.229-38.527,11.491-1.779,1.064-14.786,7.701-13.265,10.646 1.57,3.04 16.805-.866 19.729-1.31 21.143-3.207 35.485,15.932 54.792,14.405 8.993-.711 17.639-5.768 27.121-6.505 12.331-.958 19.807-2.31 30.839-8.407 22.615-12.498-4.79-14.642-17.732-16.093-20.805-2.332-42.025-3.835-62.957-4.227" fill="#fff" fill-rule="evenodd"/>
</g>
</svg>
